<svg width="566" height="124" viewBox="0 0 566 124" fill="none" xmlns="http://www.w3.org/2000/svg">
<path d="M20.803 21.3861V51.2272H66.8277L72.2891 72.6133H20.8526V124.338H0V0H82.7154V21.3861H20.803ZM129.237 21.3861V51.2272H175.311L180.276 72.6133H129.187V102.952H190.653V124.338H107.937V0H190.653V21.3861H129.237ZM289.206 102.952V124.338H219.896V0H241.146V102.952H289.206ZM337.713 21.3861V51.2272H383.788L388.753 72.6133H337.713V124.338H316.414V0H399.179V21.3861H337.713ZM515.01 44.2643C515.01 48.7404 514.514 53.2166 513.024 57.1954C512.031 61.1742 510.045 65.153 508.06 68.6345C506.074 72.116 503.095 75.1001 500.116 78.0842C497.137 81.0683 493.711 83.0577 489.739 85.0471L515.01 124.338H489.739L467.447 89.5233H453.098L461.538 68.1372H470.475C476.88 68.1372 482.341 65.6504 486.76 61.1742C488.746 58.6875 490.732 56.2007 491.725 53.714C492.718 50.7299 493.711 47.7457 493.711 44.7616C493.711 41.7775 493.214 38.7934 491.725 35.8093C490.732 32.8252 488.746 30.3384 486.76 28.349C482.292 23.8729 476.83 21.3861 470.425 21.3861H445.7V124.338H424.351V0H470.425C476.383 0 482.341 0.994703 487.803 3.48146C493.214 5.96822 497.683 8.95233 501.655 12.9311C505.627 16.91 508.606 21.8835 511.088 26.857C514.017 32.8252 515.01 38.2961 515.01 44.2643ZM566 0H544.701V123.841H566V0Z" fill="#0C0C0C"/>
</svg>
