<svg width="64" height="64" viewBox="0 0 64 64" fill="none" xmlns="http://www.w3.org/2000/svg">
<rect x="0.5" y="0.5" width="63" height="63" rx="31.5" stroke="white"/>
<path d="M26 31.25C25.5858 31.25 25.25 31.5858 25.25 32C25.25 32.4142 25.5858 32.75 26 32.75L26 31.25ZM38.5303 32.5303C38.8232 32.2374 38.8232 31.7626 38.5303 31.4697L33.7574 26.6967C33.4645 26.4038 32.9896 26.4038 32.6967 26.6967C32.4038 26.9896 32.4038 27.4645 32.6967 27.7574L36.9393 32L32.6967 36.2426C32.4038 36.5355 32.4038 37.0104 32.6967 37.3033C32.9896 37.5962 33.4645 37.5962 33.7574 37.3033L38.5303 32.5303ZM26 32.75L38 32.75L38 31.25L26 31.25L26 32.75Z" fill="white"/>
</svg>
